<?xml version="1.0" standalone="no"?>
<!DOCTYPE svg PUBLIC "-//W3C//DTD SVG 20010904//EN"
 "http://www.w3.org/TR/2001/REC-SVG-20010904/DTD/svg10.dtd">
<svg version="1.0" xmlns="http://www.w3.org/2000/svg"
 width="300.000000pt" height="300.000000pt" viewBox="0 0 300.000000 300.000000"
 preserveAspectRatio="xMidYMid meet">

<g transform="translate(0.000000,300.000000) scale(0.100000,-0.100000)"
fill="#000000" stroke="none">
<path d="M1422 1879 c-86 -176 -126 -216 -301 -301 -81 -39 -131 -69 -131 -78
0 -9 50 -39 131 -78 175 -85 215 -125 301 -301 77 -159 84 -162 137 -46 97
216 157 276 361 367 117 51 116 64 -10 121 -184 83 -244 141 -332 323 -41 85
-65 124 -76 124 -12 -1 -38 -43 -80 -131z"/>
</g>
</svg>
